<?xml version="1.0" encoding="utf-8"?>
<!-- Generator: Adobe Illustrator 23.0.2, SVG Export Plug-In . SVG Version: 6.00 Build 0)  -->
<svg version="1.1" id="Layer_1" xmlns="http://www.w3.org/2000/svg" xmlns:xlink="http://www.w3.org/1999/xlink" x="0px" y="0px"
	 viewBox="0 0 462.2 503.6" style="enable-background:new 0 0 462.2 503.6;" xml:space="preserve">
<style type="text/css">
	.st0{fill:#E1F0FF;}
	.st1{fill:#FFA76C;}
	.st2{fill:#010101;}
	.st3{fill:#030202;}
	.st4{fill:#010000;}
	.st5{fill:#0A0504;}
	.st6{fill:#090504;}
	.st7{fill:#0D0806;}
	.st8{fill:#0C0705;}
	.st9{fill:#FFFFFF;}
	.st10{fill:#020201;}
	.st11{fill:#100E0E;}
	.st12{fill:#0E0A08;}
	.st13{fill:#0E0907;}
	.st14{fill:#FEFFFF;}
	.st15{fill:#FEFEFE;}
	.st16{fill:#998A8A;}
	.st17{fill:#F66B72;}
	.st18{fill:#0C0906;}
	.st19{fill:#0D0907;}
	.st20{fill:#0E0909;}
	.st21{fill:#E07476;}
	.st22{fill:#020202;}
	.st23{fill:#030303;}
	.st24{fill:#040404;}
	.st25{fill:#070505;}
	.st26{fill:#090808;}
	.st27{fill:#080404;}
	.st28{fill:#090606;}
	.st29{fill:#191414;}
	.st30{fill:#707F7F;}
	.st31{fill:#38A1FC;}
</style>
<title>Asset 224</title>
<g>
	<g id="Layer_1-2">
		<path class="st0" d="M458.5,473.1c-4.6-4.2-10.3-5.7-16.3-5.3c-3.1,0.1-6.2,0.3-9.2,0.8c-2.8,0.5-5.7,0.7-8.4,1.4
			c0.2,1.2,1.3,1.1,2,1c3.7-0.1,7.4,0.6,11,1c4,0.5,8,1.2,11.4,3.6c0.8,0.4,1.3,1.2,1.5,2c0.8,2.4-0.2,5.1-2.5,6.3
			c-0.8,0.5-1.6,0.8-2.5,1.1c-2.8,0.8-5.6,1.3-8.5,1.5c-10,0.6-19.7-1.6-29.4-3.9c-1.4-0.4-2.8-0.9-4.1-1.6c-2.4-1.3-4.5-2.8-4.3-6
			c0-0.3,0-0.6-0.2-0.9l-0.1,0c-2.6,0.5-5.3,0.8-8,0.9c-4.6-0.1-9.1,0.9-13.7,0.4s-9.3-0.1-13.9-0.5c-2.8-0.2-5.6-0.1-8.3-0.4
			c-4.2-0.5-8.4-0.1-12.5-0.5c-3.6-0.4-7.1,0-10.7-0.4c-4.6-0.5-9.3-0.2-13.9-0.5c-4.4-0.3-8.8-0.6-13.2-0.9
			c-3.9-0.3-7.9-0.5-11.8-1c-4.4-0.5-8.7-1-13.1-1.7c-5.4-0.8-10.8-1.8-16.1-2.9c-0.9-0.1-1.8-0.4-2.6-0.8c0-0.1,0-0.2-0.1-0.3
			c-0.9,0.2-1.7,0.8-2.2,1.5c-1.7,1.6-3.1,3.6-5.3,4.7c-2.9,2.2-6.3,3.5-9.9,3.8c-7.5,0.8-15,1.4-22.5,1.7c-2.6,0.1-5.2,1-7.9,0.2
			c-0.9-0.1-1.7-0.2-2.6-0.1c-1.8,0.1-3.6-0.8-4.7-2.3c-0.2-0.3-0.3-0.6-0.5-0.9c-0.4-1.7,0.6-2.8,1.9-3.6c4.5-2.8,9.6-4.5,14.8-4.9
			c5.2-0.5,10.4-1.2,15.7-0.7c0.5,0,0.9-0.1,1.3-0.5c0.1-1.6-1-3-2.6-3.3c-2.9-0.4-5.8-0.6-8.7-1.1c-3.7-0.6-7.5-0.9-11.3-1.2
			c-3.8-0.2-7.6,0.1-11.3,0.9c-3.5,0.5-6.7,1.9-9.6,3.8c-4.3,2.8-5.4,8.6-2.6,12.9c0.1,0.1,0.1,0.2,0.2,0.3c1.4,1.9,3.1,3.6,5.1,5
			c4.7,3.4,10.1,5.4,15.6,6.9c9.3,2.5,18.8,3.4,28.3,4.6c4.3,0.5,8.6,0.8,12.9,1.5c4.6,0.7,9.3,1.2,14,1.7c5,0.6,10,0.8,15,1.4
			s9.8,0.9,14.7,1.5c5.2,0.6,10.4,1.1,15.7,1.4c2.4,0.1,4.8,0.1,7.2,0.5c5.4,0.7,10.8,0.7,16.1,1.3c2.9,0.3,5.9,0.2,8.8,0.4
			c4.5,0.4,9.1,0.4,13.7,0.5c14.5,0.2,29,0.1,43.5,0.1c0.6,0,1.2,0,1.9-0.1c3.5-0.8,7.1-0.4,10.6-0.7c3.9-0.4,7.9-0.6,11.8-1.2
			c5.9-0.9,11.7-2.1,17.4-3.7c3.7-1,7.1-2.7,10.2-4.9c2.9-2.1,4.5-5.1,5.8-8.5C463.2,479.8,461.7,476.1,458.5,473.1z"/>
		<path class="st1" d="M392,111.5c0.5,0.7,0.3,1.5,0.3,2.3c0.4,10,0,20,0.1,30c0,0.8,0.1,1.5,0.1,2.4c0.9-0.2,1.8-0.6,2.7-1.1
			c2.8-1.1,5.9,0.2,7.1,2.9c0.3,0.7,0.4,1.4,0.4,2.1c0.1,2.5-0.4,5-1.7,7.2c-2.1,3.4-1.7,6.8-0.5,10.3c1.3,3.6,2.4,7.4,3.2,11.1
			c0.4,1.8,0.7,3.7,0.8,5.5c0.1,3.6,0.9,7.1,2.5,10.3c1.3,2.7,2.5,5.5,3.7,8.3c0.5,1.1,0.9,2.3,1.2,3.5c0.6,2.5-0.1,5.1-1.8,6.9
			c-2-1.5-3.7-0.7-5.6,0.2c-7.9,4-16.6,5.5-25.1,7.4c-5.4,1.2-10.8,2.2-16.3,2.9c-6.4,0.8-12.6,0.6-18.7-1.9
			c-9.3-3.7-17.4-9.1-25-15.4c-4.5-3.7-7.9-8.4-12.1-12.2c-0.1-0.1-0.1-0.4,0-0.4c2.9-2.1,3.5-5.3,4-8.6c0.7-4.9,4.2-8.1,7.3-11.3
			c6-6.2,10.8-13.5,14.1-21.5c1.3-2.8,3-5.4,5.1-7.6c1.4-1.5,2.3-3.5,2.5-5.6c0.1-2.7,1.7-5.1,4-6.4c2.3-1.2,3.9-0.9,5.1,1.3
			c1,1.9,2.2,1.8,3.8,1.1c3.5-1.6,6.4-4,9.8-5.9c5.9-3.3,11.8-2.4,16.4,2.6c2.3,2.4,5,4.4,8.1,5.7c1.1,0.4,0.8,1.7,1.5,2.3
			c0.3,0.4,0.5,0.8,0.7,1.2c0.2,0.4,0.4,0.9,0.6,1.4c0.3,0.9,0.5,1.8,0.7,2.8c0.3-0.7,0.4-1.5,0.3-2.3c0-9.4,0-18.7,0-28.1
			C391.3,113.8,390.9,112.5,392,111.5z"/>
		<path d="M307.2,194.2c0.8-0.1,1.3,0.5,1.7,1c1.2,1.3,2.4,2.6,3.6,3.9c7.4,8.1,16.2,14.8,26,19.6c4.6,2.2,9.3,4.4,14.4,4.9
			c3.1,0.3,6.3,0.3,9.5-0.2c10.5-1.6,20.9-3.9,31.2-6.4c4.5-1.1,8.7-3.2,12.9-5.1c1.8-0.8,1.8-0.9,3,0.7c0.2,0.2,0.4,0.5,0.5,0.8
			c0.9,2.4,0.3,4.8-0.1,7.1c-0.2,1-0.1,2,0.4,2.9c2.6,5.9,5.9,11.4,8.8,17.1c5.9,11.5,12,22.9,16.7,35c3.5,8.8,6.5,17.7,8.8,26.9
			c1,0.1,1.4-0.7,2-1.1c1.3-0.8,2.4-0.7,2.8,0.7c0.8,2.6,1.3,5.2,1.6,7.9c0,1.4-0.6,2.6-1.8,3.4l-2.9,2.3c-1.5,2.2-3.8,3.4-6,4.6
			c-3.3,1.8-6.8,3.4-10.3,4.7c-3,1.1-3,1.2-2.5,4.2c1.7,10,3.5,20,4.8,30.1c0.8,6.1,1.5,12.3,2.1,18.5c0.4,3.6-0.5,4.7-4.1,5.5
			s-7.5,0.7-11.3,1.1c-1.4,0.2-2.8,0.3-4.1,0.2c-2.5,0-2.6,0.2-2.2,2.7c0.9,5.3,2.2,10.6,4,15.6c2.2,8.7,7.6,14.7,15.4,18.9
			c0.4,0.2,0.8,0.5,1.1,0.7c2.7,1.6,2.7,1.6,3.1-1.4c0.3-1.7,0-3.4,0.2-5.1c0.2-1.4,0.4-3,2.4-2.9c1.4,14-1.6,28.2-8.5,40.5
			c-3.1,5.7-6.7,11.1-10.2,16.6c-1.1,1.1-2.1,1-2.9-0.4c0.1-0.9,0.5-1.8,1.1-2.5c3.3-5.3,6.7-10.4,9.7-15.9c3.5-6.5,6-13.5,7.3-20.8
			c0.4-1.6-0.4-3.3-2-3.9c-5-2.8-9.9-5.7-13.8-10.2c-3.3-3.8-4.9-8.4-6.6-13c-1.9-5.3-3.3-10.9-3.9-16.5c-0.3-1.8-1-2.6-2.8-2.5
			c-8.9,0.1-17.8-0.4-26.7-0.5c-10.9-0.2-21.9,0-32.8-0.5c-7.5-0.3-14.9,0-22.3-0.4c-12.7-0.8-25.4-0.1-38.1-0.5
			c-5.8-0.2-11.6-0.5-17.4-1c-1.7-0.1-2.4,0.3-2.8,1.9c-1.3,5-3,10-5.1,14.7c-1.2,2.7-3,5.1-5.4,6.9c-5.8,4.4-12.3,7.5-18.8,10.7
			c-5.8,3-5,1.4-5.2,8.2c-0.4,10.7,1.5,21.4,5.4,31.4c1,2.3,2.4,4.4,4.2,6.1c0.8,0.6,1.4,1.5,1.8,2.4c-1.2,1.7-2.5,1.3-3.8,0.2
			l-2.7-3c-3.9-5.8-5.2-12.5-6.6-19.2c-1.8-8.4-2.1-17-0.9-25.5c1.2-8.8,3.6-17.5,7.1-25.7c1.1-2.8,2.4-5.5,3.9-8.2
			c1.7-2.7,2.5-5.8,3.7-8.8c1.7-4.3,3.6-8.5,5.6-12.8c5.3-11.5,9.3-23.7,11.8-36.1c1.5-7.5,2.3-15.2,3.2-22.8
			c0.2-1.7,0.4-3.4,0.5-5.1c0.2-1-0.5-2-1.5-2.1c-4.3-1.4-8.5-2.9-12.7-4.5c-8.6-3.2-16.9-7-25-11.3c-0.5-0.3-1-0.7-1.6-0.1
			c-1.1,1.1-2.3,0.7-3.4,0c-1.5-1.1-3-2.2-4.5-3.3c-1.4-0.9-1.9-2.6-1.1-4.1c0.1-0.6,0.3-1.2,0.6-1.7c3.6-4.2,5.4-9.4,7.2-14.4
			c3.9-10.6,6.7-21.4,9.6-32.3c1.5-5.8,3.6-11.4,6.4-16.7c2-3.2,5.9-4.7,9.5-3.9c1,0.2,1.9,0.9,2.2,1.9c0.5,1.9,1.6,1.8,3.2,1.7
			c12.3-1.2,24.5-3.2,36.8-5.4c1.6-0.3,3.2-0.5,4.8-0.8c3-0.5,5.7-1.3,7.7-3.8C304,195.1,305.3,193.9,307.2,194.2z"/>
		<path class="st1" d="M239.2,206.8c-5.4,11-7.7,23-11.1,34.6c-2.1,6.9-4.3,13.7-7,20.4c-1.4,3.6-3.4,6.9-6.1,9.8
			c-5.9-4.9-11.7-9.9-17.1-15.4c-6.2-6.2-11.7-13.1-16.4-20.5c-2.5-4.1-4.5-8.5-6.1-13c-0.8-1.9-1.5-3.9-2.3-5.8
			c-0.8-0.9-1.2-2-2-2.8c0.1-0.8,0.1-1.5-0.1-2.3c-3.1-8.5-5.4-17.3-8.6-25.8c-0.6-1.7-1.3-3.3-2.2-4.8c-0.2-1-0.7-1.9-1.3-2.7
			c-0.7-1.6-1.7-3.1-2.8-4.5c-0.7-0.8-1.3-1.8-2.1-2.6c-0.5-0.7-0.9-1.4-1.2-2.3c-0.7-2.2,0.4-3.8,2.9-4.1c1.8,1,2.3,2.9,3.1,4.5
			c1.2,2.2,2.2,4.6,3.3,6.8c-0.9-2.8-2-5.6-3.5-8.2c-0.6-1-1.4-1.9-1.1-3.2c1.3-1.2,3.3-1.5,4.9-0.6c0.2,0.2,0.3,0.4,0.4,0.6
			c0.2,0.3,0.3,0.6,0.5,1c1.3,3.6,1.6,7.3,2.4,11c-0.1-3.6-1.4-7-1.6-10.6c0.8-2.1,1.9-1,2.7-0.1c1.3,1.4,1.8,3.2,2.4,4.9
			c0.4,0.8,0.8,1.5,1.1,2.4c1.4,3.6,1.8,7.5,2.2,10.9c0.1-1-0.3-2.4-0.2-3.9c0.2-2.3,1.5-4.1,3.2-4.4s3.4,1.1,4,3.5
			c0.9,3.3,1.3,6.7,1.1,10.1c-0.4,7.1,3.4,10.7,8.9,12.4c6.3,2,12.9,2.6,19.4,3.5c4.4,0.7,8.9,1.1,13.4,1.2c4.5,0.1,9-0.1,13.4-0.5
			C237,206.3,238.1,205.9,239.2,206.8z"/>
		<path d="M171.2,214.2c1.8,0.1,1.6,1.6,1.8,2.7c-9.4,0.1-18.8,0.7-28.1,1.1c-3.5,0.2-7,0.5-10.4,0.9c-8.4,0.8-16.7,0.8-25.1,1.1
			c-9.2,0.3-18.3,0.7-27.5,0.9c-6.5,0.1-13-0.1-19.5,0.5c-6.3,0.6-12.7,0.9-19.1,0.8c-2.3,0-4.5,0-6.8,0c-5.3-0.1-10.7,0-16,0.4
			c-1.5,0.2-3.1,0-4.6-0.5c-2-0.5-3.5-2.3-3.6-4.4c-0.1-1.2-0.2-2.3-0.1-3.5c0.3-7.1,0.2-14.1-0.4-21.2c-0.3-4.8-0.7-9.6-0.7-14.4
			c-0.1-14.2-1.4-28.4-2.7-42.5c-1.1-12-1.9-24-2.5-36C5.5,92.9,5,85.6,4.5,78.2c-0.3-4.3-0.9-8.6-1.4-13
			c-0.5-5.3-0.5-10.7-0.5-16.1c0.1-5-0.2-9.9-0.9-14.9C1.2,30.1,1,25.9,1,21.7c0.1-0.9-0.2-1.9-0.7-2.6c-0.7-0.9-0.4-1.8,0.8-2.1
			c0.9-0.3,1.8-0.5,2.7-0.6c3.9-0.4,7.9-0.6,11.9-0.6c6.1,0,12.2-0.6,18.4-1c7.7-0.6,15.5-1.3,23.2-1.7c8.4-0.4,16.7-1,25.1-1.7
			c6-0.5,12.1-0.6,18.1-0.8c13-0.4,26.1-0.8,39.1-1.4c11.7-0.5,23.4-0.9,35.1-0.7c7.6,0.1,15.2-0.2,22.8-0.7
			c10.8-0.8,21.5-1.2,32.3-1.7c7.1-0.3,14.3-0.9,21.4-1.5c7.7-0.6,15.3-0.9,23-1.3C281.6,3,289,2.1,296.5,2c0.4,0,0.8,0,1.2,0
			c11.7,0.2,23.4-0.6,35.1-1.5c9.5-0.6,18.9-0.7,28.4-0.5c4.1,0.1,8.2,0.7,12.3,1.1c1.8,0.2,3.6,0.2,5.3,0.1c0.9-0.1,1.9,0,2.8,0.2
			c2.5,0.6,3.5,2,3.9,4.6c1.5,11.2,2,22.4,2.5,33.7c0.3,8.3,0.7,16.6,1.2,24.9c0.8,12.6,1.6,25.2,2.5,37.9c0.2,3,0.3,6,0.4,9.1
			c-0.2,1.3-0.2,2.6,0,3.9c0.4,10-0.2,20.1,0.1,30.1c0.1,0.9-0.5,1.8-1.4,2l-1.1-5.4c-0.5-1.7-0.7-3.5-0.7-5.3c0-9.5,0-18.9,0-28.4
			c0-0.9-0.1-1.7-0.4-2.5c-1-4.1-0.6-8.3-1-12.5c-0.9-8.9-0.9-17.8-1.7-26.7c-0.3-3.5-0.6-7.1-0.7-10.7c-0.2-8.6-0.9-17.2-1.2-25.8
			c-0.3-6.8-0.6-13.5-1.6-20.2c-0.1-1-0.3-2-0.4-3c0-1.4-1.1-2.5-2.5-2.5c-0.2,0-0.3,0-0.5,0c-4.4,0.3-8.8-0.6-13.2-0.8
			c-9.7-0.5-19.4-0.4-29.1,0c-5.7,0.3-11.5,0.7-17.2,1.2c-8.5,0.7-17.1,0.1-25.6,0.5s-17.1,1.2-25.7,1.6c-5.9,0.3-11.8,0.6-17.6,1
			c-5,0.3-10.1,0.6-15.1,1.1c-4.8,0.5-9.6,0.4-14.4,0.7c-10.7,0.6-21.4,1.3-32,1.9c-7.6,0.4-15.2-0.1-22.8,0.1
			c-12.2,0.4-24.3,0.3-36.5,1.2c-4.3,0.3-8.7,0.6-13,0.6c-14.3,0.1-28.5,0.5-42.8,1.7c-10.4,0.9-20.9,1.1-31.3,2
			c-7.7,0.7-15.5,1.1-23.2,1.7c-3.3,0.2-6.5,0.1-9.8,0.1c-0.9,0-1.9,0-2.8,0.1c-2.3,0.3-2.7,0.8-2.5,3c0.9,11.7,2,23.3,1.8,35.1
			c-0.1,7.4,1.2,14.7,1.9,22c0.4,3.8,0.4,7.6,0.7,11.4c0.7,11.6,1.4,23.2,2.2,34.8c1,13,2.4,25.9,3.1,39c0.4,8.1,0,16.3,0.8,24.4
			c0.7,6.8,1,13.6,1,20.4c0,1.8-0.1,3.6-0.2,5.4c-0.1,3.1,0.8,4,3.9,4.2c3.6,0.2,7.1-0.6,10.7-0.5c6.7,0.1,13.4,0.3,20,0
			c11.2-0.5,22.5-0.8,33.7-1.3c4.6-0.2,9.3-0.3,13.9-0.4c7.8-0.1,15.7-0.6,23.5-0.7c7.2-0.1,14.4-0.9,21.6-1.6
			c3.4-0.3,6.8-0.3,10.2-0.5c5.2-0.3,10.4-0.8,15.6-0.7C169.7,213.5,170.5,213.7,171.2,214.2z"/>
		<path class="st1" d="M439,413.1c-1.3,0.5-2.1,1.7-2,3.1c0.1,1.8,0,3.5-0.3,5.3c-1.3-1.5-0.5-3.3-0.4-4.7c-1.1,1.9-1.9,4.3-4.4,5.4
			c-4.7-2.1-8.7-5.5-11.5-9.8c-2-2.7-3.4-5.7-4.1-9c0-5.8,1.2-11.4,1.8-17.1c0.1-0.9,0.5-1.8,1-2.5l8.8-0.8c1.6-0.1,3.2-0.4,4.7-1.1
			c1-0.3,1.6-1.3,1.4-2.3c-0.4-5.3-1-10.5-1.6-15.7c-1.5-12.3-3.6-24.5-5.8-36.7c-0.3-1.7-0.3-1.7,1.4-2.2c5.6-2,11.1-4.2,16-7.8
			c0.8-0.6,1.7-1.1,2.6-1.5c0.3,4.4,1.6,8.7,2.7,12.9c2,7.2,3.6,14.6,4.7,22c0.2,1.5,0.3,3.1,0.4,4.6c0.1,4.8,0.9,9.5,0.4,14.4
			c-0.4,3.5-0.5,6.9-1,10.4c-0.8,5-2.2,9.8-4.2,14.5c-2.5,6-5.7,11.8-9.5,17C439.4,411.8,439.1,412.4,439,413.1z"/>
		<path class="st1" d="M417.6,470.1c0.7,0.7,1.8,0.7,2.6,0.1c1.5,0.6,2.8-0.4,4.3-0.1c1.1,0.7,2.4,0.3,3.6,0.4
			c5.8,0.5,11.6,0.9,17.2,2.7c1.6,0.5,3.1,1.3,4.4,2.5c-0.8,0.7-1.8,0.4-2.7,0.3c-5.8-0.9-11.5-1.4-17.4-0.7
			c6.2-0.9,12.2,0.2,18.3,1c1.1,0.1,2.1,0.5,3,1.1c0.8,3,0,5.4-2.8,7c-4-0.3-7.8-1.8-11.8-2.3c-0.8-0.2-1.6-0.2-2.5-0.1
			c3.3,0.6,6.5,1.1,9.8,2c0.8,0.2,1.9,0.1,2.2,1.3c-0.1,0.3-0.4,0.5-0.7,0.6c-3.1,0.8-6.4,1.3-9.6,1.5c-7.6,0.4-14.9-1.1-22.3-2.6
			c-3.2-0.6-6.3-1.4-9.4-2.6c-1.4-0.6-2.6-1.4-3.7-2.4c-1.7-1.5-2.3-3.2-1.4-5.4c-0.1-0.5,0-1.1,0.3-1.5c1.2-0.3,1.8-1.5,3-1.7
			c4.4-1,8.9-0.5,13.3-1.2C416.3,469.7,417,469.8,417.6,470.1z"/>
		<path class="st2" d="M104.1,253.9c0.5,0,0.9,0.3,1.1,0.8c2.2,4.8,5.7,8.6,9.4,12.3c7.6,7.7,16.1,14.6,25.3,20.4
			c3.2,2,6.5,3.7,9.9,5.2c0.6,0.3,1.2,0.6,1.8,1c0.5,0.3,0.7,0.9,0.4,1.4c-0.2,0.5-0.7,0.9-1.3,0.8c-0.5-0.1-1.1-0.2-1.6-0.4
			c-3.1-1.1-6-2.5-8.8-4.2c-10.8-6.5-20.6-14.4-29.3-23.5c-2.6-2.8-4.9-5.8-7-9c-0.6-0.9-1.1-1.9-1.3-2.9
			C102.6,254.5,103.2,253.8,104.1,253.9z"/>
		<path class="st3" d="M139.8,273.8c-0.1,0.7-0.7,1.2-1.4,1.2c-0.1,0-0.2,0-0.4-0.1c-0.8-0.3-1.5-0.8-2.1-1.4
			c-3.7-3.1-7.1-6.4-10.6-9.7c-0.6-0.6-1.3-1.1-1.8-1.8c-0.6-0.5-0.6-1.3-0.1-1.9c0.5-0.5,1.4-0.6,1.9-0.1c0.3,0.2,0.6,0.5,0.9,0.8
			c4,3.8,8.1,7.5,12.3,11C139,272.3,139.8,272.8,139.8,273.8z"/>
		<path class="st1" d="M239.2,464.1c1.3,0.1,2.5,0.7,3.7-0.2c1.7,0.2,2.5,1.9,4,2.6c2.3,1.1,4.7,2,6.9,3.1c0.3,0.8,0.4,1.6,0.2,2.4
			c-0.9,0.6-1.9,1.3-2.9,1.9c-3.2,1.8-6.7,2.1-10.2,2.5c-5.5,0.5-11,0.6-16.6,1.4c-0.8,0.1-1.7,0.1-2.5,0.1c-1.8,0-3.5,0.1-5.3,0.3
			c-1.1,0.4-2.3,0.2-3.4-0.4c-0.1-1.3,1-1.4,1.8-1.7c3.4-1.8,6.9-3.4,10.5-4.8c-2.4,0.3-4.4,1.4-6.6,2.4c-2.9,1.4-5.6,3-8.5,4.1
			c-1.9-0.2-3.8-0.6-4.7-2.6c0.2-1.1,1.2-1.4,2-1.8c3-1.6,6-3,9.1-4.3c-4.3,0.9-8,3.2-11.8,5.3c-0.5-2.6-0.3-3.2,1.7-4.5
			c5-3.2,10.5-4.6,16.4-5.3c3.4-0.4,6.8-0.1,10.2-0.7c1.1-0.2,2.3-0.2,3.5,0.1C237.6,464.4,238.4,464.4,239.2,464.1z"/>
		<path class="st4" d="M254,472.1c-0.4-0.8-0.6-1.7-0.5-2.5c2.1-3.3,5.1-5.8,8-8.3c8.5-7.2,18.6-11.1,29.4-13.2
			c6.3-1.2,12.7-2.1,19-3.7c8-2,15.5-5,21.6-10.8c1.8-1.7,2.3-1.5,3.6,0.6c0.4,0.6,1.1,1.1,1.9,1.2c2.7,0.7,5.4,1.3,8.2,1.5
			c8.8,1.3,17.5,2.7,25.7,6.4c5.9,2.7,11.4,6.4,16.2,10.8c5.5,4.8,9.6,10.8,14.3,16.2c0.3,0.3,0.5,0.8,0.4,1.3
			c-0.3,0.9-1.2,1.5-2.2,1.5c-5.3-6.5-10.2-13.2-16.7-18.6c-7.9-6.5-17.4-10.9-27.5-12.7c-4.8-0.9-9.6-1.7-14.4-2.4
			c-2.5-0.4-5-1-7.4-2c-0.7-0.4-1.5-0.3-2.1,0.3c-6.4,5.6-14.3,8.1-22.4,10.1c-5.6,1.4-11.4,2.1-17.1,3.3
			c-8.5,1.7-16.6,4.3-23.9,9.3c-2.5,1.6-4.9,3.6-7,5.7c-1.2,0.9-2.3,2-3.3,3.1C256.7,470.2,255.4,471.3,254,472.1z"/>
		<path class="st5" d="M451,477.4c-4-0.5-7.9-1.3-12-1.5c-2.8-0.3-5.6-0.2-8.3,0.1c-0.5,0.1-0.9,0.1-1.4,0.1c-0.6,0-1.6,0.4-1.7-0.6
			s0.9-0.8,1.6-0.9c3.7-0.5,7.4-0.6,11.1-0.1c3.1,0.3,6.3,0.8,9.4,1.2C450.3,476,450.8,476.6,451,477.4z"/>
		<path class="st6" d="M210.3,477.9c4.5-3.1,9.5-5.6,14.7-7.3c0.6-0.2,1.5-0.6,1.8,0.3s-0.7,1-1.4,1.2c-4.3,1.5-8.4,3.5-12.3,5.9
			C212.2,478,211.3,478,210.3,477.9z"/>
		<path class="st7" d="M445.9,485.2c-3.3-1.1-6.7-1.8-10.1-2.3c-1-0.1-2-0.3-3-0.5c-0.3,0-0.6-0.3-0.6-0.6c0-0.5,0.3-0.7,0.7-0.7
			c0.3,0,0.6,0,0.9,0c4.9,0.5,9.7,1.5,14.4,3.2C447.6,484.9,446.8,485.2,445.9,485.2z"/>
		<path class="st8" d="M204.9,474.5c0-0.6,0.5-0.9,0.9-1.2c3.2-1.9,6.5-3.5,10-4.7c0.4-0.1,0.7-0.3,1.1-0.3s1,0,1.1,0.5
			s-0.2,0.7-0.6,0.9c-0.6,0.2-1.1,0.5-1.7,0.7c-3.6,1.3-7,3-10.2,4.9C205.3,475.1,205.1,474.8,204.9,474.5z"/>
		<path class="st9" d="M171.2,214.2c-10.5,0.3-21,0.6-31.4,1.5c-13.9,1.3-27.9,1.3-41.9,1.9c-10.3,0.4-20.6,0.5-30.9,0.8
			c-2.2,0.1-4.3,0.2-6.5,0.4c-6.2,0.6-12.4,0.8-18.6,0.6c-7.1,0-14.3-0.1-21.4,0.3c-4.9,0.3-5.8-0.6-5.6-5.4
			c0.4-7.3,0.2-14.6-0.5-21.9c-0.8-9.4-0.5-18.9-1.1-28.4c-0.6-8.9-1.2-17.8-2-26.7c-1.2-12.4-2-24.7-2.7-37.1
			c-0.4-7.8-0.9-15.7-1.4-23.5C6.9,72.9,6.3,69,5.9,65.1c-0.4-5.2-0.6-10.4-0.5-15.6c0.1-5.9-0.3-11.8-1.1-17.6
			c-0.6-3.8-0.4-7.6-0.7-11.4c-0.1-1,0.3-1.4,1.2-1.5c3.2-0.3,6.3-0.5,9.5-0.5c6.5,0,12.9-0.5,19.3-1c7.7-0.5,15.3-1.2,23-1.7
			c8.4-0.6,16.7-0.9,25.1-1.7c5.5-0.5,11-0.6,16.5-0.8c13.8-0.4,27.6-0.8,41.4-1.4c13.3-0.6,26.7-0.9,40-0.7
			c11.2,0.1,22.3-1.1,33.5-1.6c4.1-0.2,8.2-0.5,12.3-0.6c9.1-0.2,18.1-1.2,27.2-1.8c5.3-0.3,10.7-0.8,16-0.9
			c6.8-0.2,13.5-0.8,20.2-1.3c4.3-0.3,8.7-0.4,13-0.3c8.7,0.2,17.4-0.5,26-1.1c8.4-0.6,16.9-0.8,25.4-0.9c6.9,0,13.9,0.4,20.8,1.1
			c1.6,0.2,3.3,0.2,4.9,0c0.9-0.1,1.7,0,2.5,0.3c0.8,0.2,1.3,0.9,1.3,1.7c0.7,7.1,1.7,14.2,2,21.3c0.5,12.7,1.1,25.3,1.8,37.9
			c0.8,13.3,1.7,26.5,2.5,39.7c0,0.3,0.1,0.6,0.2,0.9c0.4,0.4,0.3,1,0.3,1.5c0,9.4,0,18.9,0,28.3c0,0.6,0.2,1.3-0.3,1.8
			c-0.9,0-1-0.8-1.6-1.2c0,0.6,0.5,1.3,0,1.9c-0.2,0.3-0.3,0.7-0.8,0.3c-3-2.4-6.4-4.2-9-7.3s-6.6-3.5-10.5-2.7
			c-2.8,0.6-5.1,2.2-7.5,3.7s-4.5,3.3-7.2,4.2c-2.1,0.6-2.2,0.6-3.1-1.3c-1-2.2-2.6-2.8-4.7-1.6c-2.3,1.2-3.7,3.5-3.8,6
			c-0.1,2.3-1,4.4-2.6,6c-2.4,2.6-4.4,5.7-5.7,9c-2.9,6.9-7,13.2-12.1,18.6c-1.8,1.9-3.6,3.9-5.3,5.8c-2,2.3-3.2,5.2-3.6,8.2
			c-0.1,0.8-0.3,1.5-0.4,2.3c-0.4,2.2-1.8,4-3.8,5c-2,1.1-4.1,2.2-5.3,4.3c-0.5,0.8-1.4,0.9-2.2,1.2c-2.8,0.8-5.7,1.4-8.6,1.7
			c-7.5,1.2-15,2.6-22.5,3.7c-5.6,0.8-11.2,1.4-16.8,2c-0.9,0.1-1.3,0-1.3-1c0.1-2.4-1.4-3.4-3.8-3.1c-0.5,0.1-1.1,0.1-1.6,0.2
			c-2.5-0.2-4.8,1.2-5.8,3.5c-4.8,0.8-9.7,0.4-14.6,0.8c-2.9,0.1-5.9-0.1-8.8-0.4c-3.6-0.3-7.2-0.8-10.8-1.3
			c-5.5-0.7-11.1-1.4-16.4-3.2c-4.1-1.4-7.1-4-8.3-8.4c-0.2-1.1-0.3-2.3-0.3-3.5c0-3.5-0.3-7-0.9-10.4c-0.2-0.8-0.4-1.5-0.8-2.2
			c-0.4-1-1.3-1.6-2.4-1.6c-1,0-2,0.7-2.4,1.6c-0.5,0.8-0.7,1.8-0.6,2.7c0,1.9,0,3.9,0,6.3c-1.1-2-1-3.8-1.4-5.5
			c-0.4-2.8-1-5.6-1.9-8.4c0.6-0.6,1.3-0.8,2.1-0.7c4.1,0.2,8.2-0.4,12.3-0.5c12-0.4,24-0.7,36-1.3c4.9-0.2,9.8-0.3,14.6-0.5
			c7.4-0.4,14.7-1.1,22.1-1c0.5,0,0.9-0.2,1.3-0.5c-1.9-1.6-1.6-3.8-1.5-5.9c0.5-11,0.3-22,0.5-33c0.3-14.5,0.4-29,0.4-43.5
			c0-4.4-1.2-5.5-5.5-5.6c-3.3,0.1-6.5,0.3-9.7,0.8c-3.8,0.4-7.5,1.1-11.3,1.2c-4.2,0.1-5.2,1-5.4,5.3c-0.3,4.6-0.4,9.3-0.5,13.9
			c-0.3,11.3-1.1,22.6-1.4,33.9c-0.3,9.5,0,19.1-0.1,28.6c0,5,0,5-4.9,5.5c-2.7,0.2-5.4,0.2-8.1,0.1c-2,0-2.7-1-2.8-2.9
			c-0.1-3,0.4-5.9,0.5-8.8c0.3-6.2,0.7-12.4,1.1-18.6c0.4-4.1,0.7-8.2,0.6-12.3c-0.2-4-1.4-5.3-5.4-5.3c-4.5,0-9,0-13.5,0
			c-3,0-3.6,0.6-4.1,3.6c-0.2,1.3-0.3,2.6-0.2,3.9c0.2,12.3-0.9,24.6-1.4,36.9c-0.2,3.7-0.7,4.1-4.4,4.5c-2.4,0.3-4.8,0.4-7.2,0.3
			c-2.2-0.1-2.8-0.8-2.6-2.9c0.5-5,0.6-10.1,1.1-15.1s-1-6.6-6.1-6.6c-4.3,0.2-8.5,0.6-12.7,1.4c-2.9,0.4-3.9,1.7-3.8,4.6
			c0.1,5.2-0.4,10.4-0.5,15.6c-0.1,2.9-0.6,3.4-3.4,3.5h-2.1c-3.1,0.1-4.1-0.5-3.8-3.7c0.6-6.2,0.2-12.4,0.7-18.6
			c0.5-6.4,0.1-12.9,0.2-19.3c0.1-7.5-0.3-15-1.4-22.5c-0.7-4.8-2-6-7-5.8c-5.7,0.1-11.3,0.8-16.9,2c-3.9,0.9-4.9,2.3-4.5,6.3
			c0.5,4.8,0.7,9.6,0.7,14.4c0.2,14.6,0.1,29.2,0.1,43.8c0,0.7,0,1.4,0,2.1c0.2,1.3-0.7,2.5-2,2.6c-0.2,0-0.3,0-0.5,0
			c-2.8,0.1-5.6,0-8.4,0.2c-1.2,0.1-1.9-0.6-2-1.8c0-0.2-0.1-0.5-0.1-0.7c0.5-4.8-0.3-9.6,0.3-14.4c0.3-2.6,0.1-5.1,0.2-7.7
			c0.1-4.9-0.3-9.8,0.4-14.6c0.1-1.2,0.1-2.3,0-3.5c-0.2-3.1-1.4-4.1-4.5-3.8c-5.3,0.6-10.6,1.5-15.9,2.3c-6.7,1-6.3,0.2-7.1,7.5
			c-1,10.4-1.4,20.9-1.3,31.4c0,6.4-0.6,7-7,7.1c-6.8,0-6.5,0.3-6.5-6.5c0-4.4,0-8.7,0-13c0-2.5,0.3-2.8,2.9-4.1
			c-2.2-0.2-2.8-1.4-3-3.2c-0.4-4.9-0.8-9.9-0.9-14.9c0-1.9,0.4-3.4,3.2-3.8c-1.4-0.6-2.7-0.4-3.2-1.5c-0.3-1-0.5-2-0.5-3
			c-0.7-7.3-0.7-14.6-1.3-21.8c-0.2-2.6,0-3,3.2-4.4c-3.5-0.6-3.6-0.8-3.8-4.6c-0.3-4.5-0.8-9-1.2-13.4c0-0.4-0.1-0.8-0.2-1.2
			c-0.3-3.3,0-3.7,3.8-4.7c0-0.2,0-0.3-0.2-0.3c-3.9-0.6-3.9,0.1-4.4-4.7c-0.7-6.6-1.3-13.1-2.1-19.7c-0.1-0.6,0.1-1.2-0.5-1.8
			c-0.5,0.7-0.2,1.3-0.2,2c0.9,11.7,2,23.3,3.1,35c0.9,10.3,1.6,20.6,2.1,30.8c0.4,7.3,0.6,14.7,1.2,22.1
			c0.8,10.6,0.8,21.2,0.8,31.9c0,0.7,0,1.4,0,2.1c-0.2,2.3-0.8,3-3.2,3.1c-3.5,0.1-7-0.1-10.5,0.5c-0.5,0-0.9,0.1-1.2,0.4
			c3.9,0,7.6,0.2,11.3-0.2c2.8-0.3,3.5,0.3,3.6,3.1c0.1,4.1,0.7,8.2,0.5,12.3c-0.1,0.7,0.1,1.4,0.5,2c1-0.4,0.8-1.3,0.7-2
			c-0.5-3.7-0.2-7.4-0.6-11.1s0.6-4.4,4.1-4.5c12.5-0.3,25-1,37.4-1.5c8.3-0.4,16.6-0.6,24.9-1c9.6-0.4,19.2-0.7,28.8-0.8
			c1.2-0.1,2.5,0.1,3.6,0.6c1.4,1.3,2.4,2.9,2.8,4.8c-1.2,1.3-3.2,0.6-4.7,1.7c2,1.2,4.1-0.7,5.9,0.5c0.8,0.4,0.9,1.2,1.3,1.9
			c1.9,4.3,3.6,8.8,4.9,13.3c1.7,5.5,3.5,10.9,5.4,16.3C172,213,172.2,213.7,171.2,214.2z"/>
		<path d="M346.7,168.5l-3.4-1.2c-0.6-0.2-1.2-0.4-1.8-0.6c-2.2-1-2.5-2.7-0.7-4.4c0.8-0.7,1.7-1.4,2.5-2c0.9-0.6,1.8-1.3,2.5-2.2
			c-1.6-0.9-3-2-4.2-3.3c-1-1-1.3-2.5-0.9-3.9c1.1-4.1,4.6-7.1,8.9-7.4c4.1-0.5,8.3,0.5,11.8,2.6c2,1.2,3.9,2.5,5.8,3.9
			c2.4,1.8,3.4,4.9,2.6,7.7c-0.7,2.9-3,5.1-5.9,5.7c-3.3,0.8-6.7,0.4-9.7-1.2c-1.6-0.8-3.1-1.7-4.7-2.6c-0.5-0.3-1-0.7-1.7-0.2
			l-5.6,4.6c1.3,0.9,2.7,1.1,4,1.5c1.5,0.5,2.9,1,4.3,1.7c0.8,0.4,1.5,1,1.3,2s-0.9,1.4-1.8,1.6c-0.5,0.1-0.9,0.1-1.4,0.1
			c-0.4,0-0.6,0.2-0.6,0.5c0.2,2.4-1.6,2.7-3.3,3.1c-0.1,0-0.1,0.1-0.2,0.1c0.1,0.1,0.1,0.3,0.2,0.3c4,1.9,7.8,4.1,11.5,6.6
			c2.1,1.3,4.7,1.8,7.2,1.2c1.6-0.3,3.1-0.8,4.7-1.2c0.5-0.1,1-0.3,1.6-0.5c0.6-0.2,1.3,0,1.6,0.6c0.3,0.7-0.1,1.2-0.7,1.5
			c-0.3,0.2-0.7,0.4-1.1,0.5c-2.3,0.8-4.6,1.3-7,1.6c-2.6,0.4-5.3-0.2-7.6-1.7c-4.5-2.9-9.2-5.6-14-7.9c-1.1-0.5-2-1.1-2.9-1.9
			c-0.6-0.4-0.8-1.2-0.6-1.9c0.3-0.7,1.1-1,1.8-0.8c1.5,0.2,3,0.5,4.6,0.7c0.8,0.1,1.6,0,1.2-1.2S346,169.3,346.7,168.5z"/>
		<path class="st10" d="M372.2,138.2c0,1.1-0.5,2.2-1.4,3c-1,1.1-2.2,2.2-3.4,3.1c-2.7,1.8-4.6,1.1-5.2-2.1c-0.3-1.4,0-2.9-1.4-4
			c-0.6-0.5-0.5-1.4,0.1-2.1c1.7-2.1,4.2-3.2,6.9-3.2C370.6,133,372.2,135.1,372.2,138.2z"/>
		<path class="st10" d="M384,143.4c-0.3,1.7-0.9,3.2-1.8,4.7c-0.1,0.2-0.3,0.4-0.5,0.5c-2,0.3-3.6,1.6-5.6,2.1
			c-2.3,0.6-3.6-0.6-3.3-3c0.3-2.1,1.5-3.9,1.7-6c0-0.5,0.6-0.9,1.1-1c2-0.8,4.1-0.9,6.1-0.4C383.2,140.6,384.1,142,384,143.4z"/>
		<path class="st11" d="M387.4,138.1c-0.1-1-0.6-1.9-1.4-2.6c-0.3-0.3-0.7-0.7-0.2-1.1s0.9-0.1,1.3,0.1c0.9,0.7,1.2,1.7,1.9,2.8
			c0.3-0.6,0.4-1.2,0.3-1.8c0.2-9.3,0-18.6-0.2-27.9c0-0.6,0-1.2,0.1-1.8c0.6,0.4,0.5,1.1,0.5,1.7c0,11.6,0,23.1,0,34.7l-0.4-0.9
			c-0.4-0.1,0.1-1-0.6-0.9s-1-0.3-0.9-1C387.7,139,387.8,138.4,387.4,138.1z"/>
		<path class="st12" d="M398.4,151.2c-0.2,1.5-1.1,2.8-2.5,3.6c-0.5,0.3-1.1,0.2-1.5-0.3c-0.4-0.4-0.3-1,0.1-1.4c0,0,0,0,0,0
			c0.8-0.6,1.4-1.4,1.7-2.4c0.1-0.5,0.7-0.9,1.2-0.7c0,0,0,0,0,0C398.1,150.1,398.5,150.7,398.4,151.2z"/>
		<path class="st13" d="M344.2,139.8c0-0.4,0.1-0.7,0.2-1.1c0.1-0.3,0.3-0.5,0.6-0.7c0.4-0.3,0.9-0.3,1.3,0.1c0.8,0.9,0.1,1.8,0,2.6
			c0,0.5-0.5,0.9-0.9,0.8c0,0,0,0-0.1,0c-0.7,0-0.9-0.5-1-1C344.2,140.3,344.2,140,344.2,139.8z"/>
		<path class="st9" d="M388.5,140.4c0.2-0.1,0.5-0.3,0.5-0.3c0.3,0.3,0.3,0.8,0.1,1.2C388.9,141,388.6,140.7,388.5,140.4z"/>
		<path class="st9" d="M407.9,223.5c7.5,15.6,16,30.4,22.9,46c4.6,10.6,8.4,21.5,11.4,32.7c0.4,1,0,2.2-1,2.6c-3.7,2.2-7.3,4.7-11,7
			c-1.5,1-3.1,1.8-4.7,2.5c-1.8,0.7-1.8,0.7-2.4-1.1c-1.9-5.3-3.7-10.7-5.6-16c-0.2-0.7-0.5-1.3-0.9-1.9c-0.2-0.4-0.8-0.6-1.2-0.4
			c-0.5,0.2-0.7,0.6-0.6,1.1c0.1,0.5,0.3,1.1,0.4,1.6c1.4,4.1,2.7,8.2,4.2,12.3c2.8,8.3,4.8,16.8,6.1,25.5c1.4,8.5,2.9,17,4,25.5
			c0.7,5.7,1.3,11.4,1.9,17.1c0.2,1.5,0,1.7-1.6,1.9c-7.6,1.1-15.3,1.5-23,1.4c-23-0.5-46.1-1-69.1-1.5c-14.8-0.3-29.6-0.5-44.5-0.4
			c-7.2,0-14.4-0.5-21.6-1c-6.3-0.4-12.5-0.9-18.8-0.8c-2.5,0-5-0.3-7.5-0.8c0.1-0.9,0.4-1.8,0.9-2.6c1.4-3.8,3.2-7.4,4.9-11
			c5.3-11.2,9.4-23,12-35.1c2-9.2,2.9-18.5,4.1-27.8c0.2-1.5,0.1-3.1,0.2-4.6c0-2,0-2-1.8-2.6c-4.5-1.5-8.9-3-13.4-4.7
			c-7.9-2.9-15.5-6.4-23-9.9c-0.4-0.2-0.8-0.4-1.2-0.7c-2.2-1.2-2.2-1.3-1.4-3.6c3.1-8.3,6.4-16.5,10.3-24.4
			c4.9-10.4,8.7-21.4,11.3-32.7c0.5-1.9,1.1-3.7,1.6-5.6c0.2-1.1,1.1-1.9,2.2-1.9c4.5-0.5,9.1-1.2,13.6-1.6s9.2-1.3,13.8-2.1
			c6-1.1,11.9-2.2,17.9-3.2c1.4-0.2,3-1.5,4.1-0.7c1,0.7,1.2,2.4,1.8,3.7c3.4,6.4,8.1,12,13.8,16.5c7.7,6.4,17,10.8,26.9,12.6
			c1.5,0.1,2.7,1.2,2.9,2.7c0.3,1.6,0.8,3.1,1.6,4.6c0.6,1.2,0.6,2.7-0.2,3.9c-7.7,15.8-13.8,32.4-18.2,49.4
			c-1.2,4.7-2,9.6-2.6,14.4c-0.5,3.2,0.1,6.6,1.7,9.5c1.8,3.4,3.9,6.7,6,10c0.3,0.4,0.5,0.8,0.8,1.1c1.5,1.7,2.9,1.9,4.6,0.3
			s3-3.3,4.5-5c2.2-2.4,3.9-5.2,6.3-7.4c0.4-0.6,0.7-1.2,0.7-1.9c1.1-5.6,1.8-11.2,2.2-16.8c1.1-16.5,0.7-33,0.6-49.6
			c0-1.5-0.6-3.1-0.1-4.3s2-2.1,3-3.2c1.4-1.4,2.7-2.8,4-4.2c0.5-0.6,1.3-0.9,2-0.7c6.4,1.2,12.6,0.1,18.8-2c5.8-2,11.4-4.4,17-6.9
			c2.4-1.1,4.7-2.5,6.8-4C406.7,224.2,407.3,224,407.9,223.5z"/>
		<path class="st9" d="M401.8,471.4c-2.5-2.7-4.8-5.7-7.1-8.6c-7.1-8.8-15.7-15.9-26.3-20.1c-6.4-2.6-13.2-3.8-20-4.9
			c-3.7-0.6-7.4-0.8-11-1.8c-0.7-0.2-1.5-0.4-2.2-0.7c-0.5-0.2-1.1-0.3-0.7-1.1c0.2-0.5,0-1.1-0.5-1.3c0,0-0.1,0-0.1,0
			c-0.7-0.4-1.2,0-1.6,0.5c-6.6,7-15.2,9.8-24.2,12c-5.7,1.4-11.4,2.1-17.1,3.3c-5.3,1-10.5,2.6-15.5,4.7c-7,3.1-13.2,7.5-18.5,13
			c-1.1,1.1-2.2,2.1-3.3,3.2c-0.4,0-0.7,0.3-1.1,0.1c-3.4-1.5-7.1-2.6-9.5-5.7c-3.6-2.8-6.3-6.7-7.6-11.1
			c-2.9-8.9-4.4-18.1-4.4-27.4c0-2,0.3-4,0.3-6c-0.1-1.1,0.6-2.1,1.7-2.5c4.1-2,8.2-4,12.3-6.1c3.6-1.8,7-4,10.3-6.4
			c2.1-1.6,3.8-3.7,4.8-6.1c2.2-5.2,4.1-10.5,5.5-16c0.3-1.1,0.6-1.7,2-1.6c10.4,0.9,20.7,1.4,31.1,1.3c18.5-0.1,37.1,0.5,55.6,0.8
			c11.5,0.2,23,0.4,34.4,0.6c6.1,0.1,12.3,0.3,18.4,0.4c2.1,0,2.1,0,2.4,2.2c1,8.1,3.2,15.9,6.4,23.4c2,4.6,5.3,8.6,9.5,11.5
			c3,2.2,6.2,4.1,9.5,5.9c0.9,0.3,1.4,1.2,1.2,2.2c-0.3,2.3-0.7,4.6-1.3,6.9c-2,7.4-5.1,14.5-9.2,21c-2.5,3.9-4.9,7.7-7.3,11.6
			c-0.3,0.5-0.8,1-0.7,1.6c-1.6,0.8-3.3,0.6-5,0.7c-3.4,0.3-6.8,0.2-10.2,0.8C402.2,471.6,402,471.5,401.8,471.4z"/>
		<path class="st9" d="M232.1,413.1c1.7-9.7,4.8-19.1,9.2-27.9c0.8-1.7,1.7-3.3,2.5-5c0.3-0.7,0.7-1.2,1.6-1
			c5.6,1.3,11.4,0.6,17.1,1.2l1.3,0.2c-0.2,0.8-0.3,1.6-0.5,2.3c-1.5,5-3.3,9.8-5.3,14.6c-0.9,1.9-2.2,3.6-3.9,4.8
			c-3.2,2.4-6.7,4.6-10.3,6.4l-11,5.5C231.8,414.2,231.9,413.7,232.1,413.1z"/>
		<path class="st9" d="M351.2,226c-1.3,2.5-3.2,4.2-4.7,6.3c-0.6,0.8-1.3,0.4-1.9,0.2c-7-1.3-13.6-3.8-19.6-7.5
			c-6.7-4.1-12.5-9.5-17.1-15.8c-1.5-2-2.7-4.2-3.7-6.4c-1-2.4-0.8-3.3,1.4-4.9c1.5-1.1,1.5-1.1,2.8,0.3c1.1,1.1,2.1,2.3,3.2,3.4
			c10.3,10.9,22.3,19.2,36.7,23.6C349.2,225.5,350.1,225.7,351.2,226z"/>
		<path class="st9" d="M222.2,277.2L218,274c-0.6-0.5-1-1-0.3-1.7c4.7-5.3,6.6-11.8,8.9-18.2c3.5-9.9,6.1-20,8.8-30.1
			c1.4-5.3,3.4-10.5,5.8-15.4c1.1-2.3,3.6-3.5,6.1-3.1c0.4,0.1,0.7,0.4,0.7,0.8c0.1,0.9,0,1.7-0.2,2.5c-4,14.6-7.8,29.2-14.8,42.8
			c-3.8,7.5-6.6,15.4-9.6,23.2C223.2,275.6,222.8,276.5,222.2,277.2z"/>
		<path class="st9" d="M356.8,226c5.4,0.1,10.8-1,16.2-2c7.8-1.4,15.5-3.2,23.1-5.2c3.3-0.9,6.3-2.5,9.5-3.8
			c0.6-0.3,1.3-0.6,1.9-0.8c1.3,2.8,0.4,6.1-2,8c-4.8,3.5-10.3,5.7-15.7,7.9c-4.9,2-9.8,4-15,4.9c-3.4,0.7-6.9,0.8-10.4,0.3
			c-1.2-0.1-2.2-0.8-2.7-1.9c-1.2-2.3-2.8-4.5-4.5-6.4C356.9,226.7,356.6,226.5,356.8,226z"/>
		<path class="st9" d="M331,302.6c6.1,1.4,12.1,1.8,18,3c2.5,0.5,2,0.3,1.8,2.5c-0.2,1.9-0.6,3.7-0.8,5.5c-0.1,1-0.6,1.2-1.5,1.1
			c-5.6-1-11.2-1.6-16.8-2.2c-2.1-0.2-2.2-0.3-1.9-2.4C330,307.5,330.4,305,331,302.6z"/>
		<path class="st9" d="M351.3,303.5c-2.6-0.4-5-0.8-7.5-1.2c-3.6-0.5-7.2-1-10.8-1.6c-1.8-0.3-1.8-0.4-1.4-2.1
			c0.5-2.1,1-4.2,1.5-6.3c0.1-0.7,0.3-1.1,1.2-0.9c5,0.8,10.1,1.4,15.1,2.2c2.5,0.4,2.5,0.5,2.3,2.9S351.5,301,351.3,303.5z"/>
		<path class="st14" d="M447.2,303.9c0.6,1.8,1,3.6,1.3,5.5c0.2,1.1-0.6,1.7-1.4,2.3c-5,4-10.6,7.3-16.6,9.6
			c-1.3,0.5-2.6,0.9-3.9,1.4c-0.6,0.2-1,0.1-1.2-0.7c0-0.3-0.2-0.6-0.2-0.9c-0.1-1.2-1.1-2.5-0.6-3.6s2-1,3-1.5
			c1.7-0.9,3.4-1.8,5-2.9L447.2,303.9z"/>
		<path class="st9" d="M352.2,286.5v4.2c0,0.7-0.3,1-1,0.8c-5.1-1.1-10.4-1.3-15.6-2.1c-1.1-0.2-1.5-0.4-1-1.6
			c0.8-2.3,1.5-4.7,2.2-7.1c0.3-0.9,0.6-1.3,1.6-1.1c3.7,0.8,7.5,0.8,11.3,1.3c0.4,0,0.8,0.1,1.1,0.2c1.2,0.1,1.7,0.6,1.6,1.9
			c-0.1,1.2-0.1,2.3,0,3.5L352.2,286.5z"/>
		<path class="st15" d="M329.9,314.6c6.2,0.8,12.2,1.4,18.5,2.7c-1.1,1.4-2.1,2.6-3,3.8c-2,2.4-4.1,4.8-6.2,7.2
			c-0.5,0.6-1.2,1.1-1.8,0.1c-2.8-4.2-5.6-8.3-7.4-13.1C329.9,315.1,329.9,314.8,329.9,314.6z"/>
		<path class="st15" d="M352.4,278.9c-5-0.9-9.7-0.7-14.5-1.7c1-2.6,1.9-5.1,2.7-7.5c0.3-0.7,0.6-1,1.4-0.9c3.1,0.4,6.1,0.8,9.2,1.2
			c0.7,0.1,1.3,0.3,1.3,1.2C352.3,273.7,352.4,276.2,352.4,278.9z"/>
		<path class="st15" d="M353.8,226.8c2.3,2.3,4.3,5,5.9,7.8c0.5,0.8,0.7,1.4-0.2,2.2c-2.1,2-4,4.1-6,6.1c-1.3,1.2-1.6,1.2-2.4-0.3
			c-1.2-2.4-2.1-5-2.8-7.6c-0.2-0.7,0.2-1.2,0.6-1.7C350.6,231.3,352.3,229.1,353.8,226.8z"/>
		<path class="st15" d="M419,383.7c-0.4,3.1-0.7,6.2-1.1,9.3c-0.4,2.4-0.7,4.9-0.9,7.3c0,1.1-0.2,2.1-0.8,3.1
			c-2.3-6.3-3.9-12.8-4.7-19.4L419,383.7z"/>
		<path class="st15" d="M352.4,267.7l-10.4-1.3c0.8-2.5,1.7-4.9,2.8-7.3c0.2-0.4,0.4-0.6,0.9-0.6c1.9,0.3,3.8,0.7,5.7,1
			c0.6,0.1,1.1,0.4,1.1,1.2C352.4,263.1,352.4,265.4,352.4,267.7z"/>
		<path class="st9" d="M352.3,257.4l-6-0.9c-0.4-0.6,0-1.1,0.1-1.6c1-2.7,2.2-5.3,3.5-7.8c0.3-0.5,0.3-1.3,1.3-0.9
			c0.6,0.2,1.1,0.5,1.1,1.3C352.3,250.7,352.3,254,352.3,257.4z"/>
		<path class="st9" d="M432,422.2l4.3-5.8l0.5,0.1v8.5C435.1,424.2,433.5,423.2,432,422.2z"/>
		<path class="st16" d="M232.1,413.1c0.2,0.4,0.1,0.9,0.6,1c-0.2,0.3-0.6,0.6-0.9,0.2S231.8,413.5,232.1,413.1z"/>
		<path d="M156.2,173.7c-13.4,0.4-26.8,0.7-40.3,1.2c-16.8,0.6-33.5,1.4-50.2,2.1c-2,0.1-4,0.2-6,0.1c-1.3,0-1.6,0.5-1.5,1.7
			c0.2,4.3,0.4,8.7,0.6,13c0.1,1,0.1,2-0.2,3c-0.1,0.6-0.6,0.9-1.2,0.9c-0.5,0-0.9-0.4-0.9-0.9c-0.1-0.5-0.1-1.1-0.1-1.6
			c-0.2-4.8-0.4-9.6-0.5-14.4c0-1.3-0.5-1.6-1.7-1.5c-3.8,0.1-7.6,0.2-11.4,0.3c-0.8,0.1-1.7,0-2.5-0.2c-0.5-0.2-0.7-0.6-0.7-1.1
			c0.1-0.4,0.4-0.7,0.8-0.7c0.4,0,0.8,0,1.2,0c4.2-0.1,8.4-0.3,12.6-0.4c1.7-0.1,1.7-0.1,1.7-1.7c-0.1-10.6,0-21.3-0.7-31.9
			c-0.7-10.2-1.2-20.4-1.7-30.7c-0.5-9.5-1.3-19-2.1-28.6c-0.9-10.8-1.9-21.5-2.8-32.2c-0.1-0.5-0.1-1.1-0.1-1.6
			c0-0.7,0.2-1.3,1-1.3s1.1,0.5,1.2,1.2c0,0.2,0,0.5,0,0.7c0.7,7.3,1.4,14.5,2.2,21.8c0.1,1.1-0.3,2.6,0.5,3.3s2.2,0.1,3.4,0.2
			c0.3,0,0.6,0,0.9,0.1c0.6,0.1,1,0.4,1,1.1c-0.1,0.5-0.4,0.9-0.9,0.9c-0.5,0.1-1.1,0.1-1.6,0.2c-2.8,0.2-2.8,0.2-2.6,3.1
			c0.4,4.4,0.8,8.8,1.2,13.2c0.1,2,0.3,4.1,0.6,6.1c1.1-0.2,2.1-0.4,3.1-0.5c0.7-0.1,1.5,0,1.6,1s-0.6,1-1.2,1.1
			c-1.1,0.2-2.6,0-3.2,1s0,2.3,0,3.4c0.4,7.2,0.7,14.4,1.1,21.6c0,0.5,0.1,0.9,0,1.4c0,1,0.4,1.5,1.4,1.3c0.6-0.2,1.2-0.2,1.8-0.1
			c0.5,0.1,0.9,0.5,0.9,0.9c0,0.5-0.3,0.9-0.8,1c-0.5,0.2-1.1,0.2-1.6,0.2c-1.3-0.1-1.6,0.4-1.5,1.6c0.3,4.9,0.6,9.9,0.8,14.9
			c0,0.3,0,0.6,0.1,0.9c0.1,0.8-0.2,1.7,0.3,2.3s1.5,0.1,2.2,0.2c0.3,0,0.6,0.1,0.9,0.2c0.4,0.1,0.6,0.5,0.6,0.9
			c0,0.4-0.2,0.8-0.6,0.9c-0.3,0.1-0.6,0.1-0.9,0.1c-2.4,0.3-2.4,0.3-2.4,2.5c0,6,0.1,12,0.2,17.9c0,1.1,0.3,1.5,1.5,1.5
			c2.5-0.1,5-0.1,7.5-0.2c2.8-0.1,2.8-0.1,2.9-2.9c0.1-3.3,0.1-6.7,0.1-10c0-2.3,0.1-4.7,0.4-7c0.3-2,0.4-4,0.3-6
			c-0.4-5.6,0.7-11.1,1.2-16.7c0.2-1.6,0.7-2.2,2.3-2.4c7.1-1,14.1-2.3,21.2-3c3.4-0.4,4.8,0.8,4.9,4.2c0.1,0.9,0.1,1.7,0,2.6
			c-0.8,8.4-0.1,16.9-0.7,25.4c-0.3,4.4,0.2,8.9-0.2,13.3c-0.1,0.9,0.2,1.3,1.2,1.2c3-0.1,6.1-0.3,9.1-0.3c1.2,0,1.4-0.6,1.4-1.6
			c0-2.9,0-5.9-0.1-8.8c-0.3-8,0.1-16,0.1-24c0-8.5-0.1-17.1-0.5-25.6c-0.1-1.4-0.4-2.8-0.5-4.2c-0.2-2.2,0.6-3.3,2.6-4.2
			c0.6-0.3,1.1-0.5,1.8-0.6c3.6-0.8,7.3-1.4,11-1.8c1.6-0.1,3.1-0.3,4.6-0.4c2-0.3,4-0.2,6,0.2c1.8,0.3,3.2,1.8,3.5,3.6
			c0.7,3.2,1.1,6.4,1.3,9.7c0.5,10.2,0.9,20.5,0.4,30.7c-0.3,7.3-0.5,14.6-0.7,21.9c0,0.4,0,0.8,0,1.2c0,2.8,0,2.8,2.8,2.7
			c1.3-0.1,2.6-0.1,4-0.1c0.9,0,1.2-0.3,1.2-1.2c0-5.2,0.1-10.4,0.2-15.6c0-1.1,0-2.2,0.1-3.3c0.1-1.6,1.3-2.9,2.8-3.4
			c0.1,0,0.3-0.1,0.4-0.1c5.4-0.8,10.7-1.9,16.2-1.6c3.6,0.2,5,1.8,4.8,5.4c-0.3,5.8-0.8,11.6-1.2,17.4c-0.1,1.8-0.2,1.8,1.6,1.8
			c3.1-0.1,6.2-0.2,9.3-0.3c1,0,1.6-0.2,1.6-1.4c0.3-3.9,0.9-7.7,0.9-11.6c0-4.7,0.2-9.3,0.6-14c0.3-3.4,0.1-6.8,0.1-10.2
			c-0.1-3.1,0.1-6.2,0.6-9.3c0.4-1.9,0.9-2.5,3-2.6c1.5-0.1,2.9,0.1,4.4,0.1c3.3,0,6.5,0,9.8-0.3c5.3-0.4,7.1,1.4,7,6.7
			c-0.1,6.3-0.7,12.6-1.1,18.8c-0.2,3.9-0.4,7.9-0.7,11.9c-0.2,3.1-0.4,6.2-0.6,9.3c-0.1,1.5,0,1.6,1.5,1.5
			c3.8-0.1,7.6-0.2,11.4-0.4c1.6-0.1,1.6-0.1,1.6-1.8c-0.2-9.2-0.1-18.5,0.1-27.7c0.2-9.5,0.6-18.9,1.1-28.4
			c0.3-5.7,0.4-11.5,0.5-17.2c0-2.7,0.2-5.5,0.5-8.2c0.4-3,0.9-3.5,4-3.8c3.4-0.3,6.8-0.3,10.2-0.9c4.2-0.7,8.5-1.1,12.7-1.2
			c4.8-0.1,6.1,1.1,6.3,5.9c0.3,8.2,0,16.3-0.1,24.4c-0.1,9.9-0.3,19.9-0.3,29.8c0,8.5-0.5,16.9-0.7,25.4c0,1.7-0.1,1.7,1.5,2
			c0.6,0.1,1.3,0.3,1.3,1.1c0,0.9-0.8,1.1-1.5,1.2c-0.6,0.1-1.2,0.1-1.9,0.1c-12.8,0.2-25.6,1.5-38.4,1.8c-7,0.2-14,0.4-20.9,0.7
			c-9.2,0.3-18.5,0.7-27.7,1l-0.9-1.9c0.1-6.1,0.5-12.2,1.1-18.3c0.3-2.9-0.3-3.7-3.2-3.8c-4.3,0.2-8.5,0.6-12.7,1.4
			c-1.3,0.1-2.2,1.2-2.1,2.4c0,0.1,0,0.1,0,0.2c0.1,4.5-0.2,9-0.5,13.5c-0.2,3.4,0,3.4,3,4.6C155.1,172,155.7,172.8,156.2,173.7z"/>
		<path class="st17" d="M154.4,171.4c-4.3,0.1-3.8,0.5-3.7-3.6c0.1-4.9,0.4-9.8,0.3-14.6c0-2.2,0.4-2.8,2.4-3.1
			c4.4-0.8,8.9-1.3,13.4-1.4c0.7,0,1.4,0.1,2.1,0.2c1.5,0.4,1.8,0.7,1.8,2.3c-0.1,2.4-0.3,4.8-0.5,7.2c-0.3,3.7-0.3,7.4-0.8,11.1
			c0,0.7-0.2,1.4-0.6,2c-0.7-1.3-0.9-2.7-1.7-3.9c-0.4-0.7-1-1.4-1.7-1.7c-0.7-0.3-0.7,0.3-0.9,0.7c-0.9-0.2-1.3-1.1-2.1-1.4
			c-1.7-1.2-3.2-0.3-4.8,0.4c-0.5,0.5-1.3,0.5-1.8,0c0,0,0,0,0,0c-2.6,0.5-3.4,1.9-2.4,4.2C153.7,170.2,154.1,170.8,154.4,171.4z"/>
		<path class="st18" d="M155.8,165.4c0.6-0.2,1.2-0.2,1.8,0c1.8,3.1,3.4,6.4,4.8,9.8c0.3,0.9,1.3,2.1,0,2.6c-1.1,0.4-1.1-1.2-1.4-2
			C159.5,172.2,157.8,168.7,155.8,165.4z"/>
		<path class="st19" d="M162.4,165c1.4-0.5,1.7,0.6,2.1,1.4c0.6,3.1,1.2,6.2,1.8,9.3c0.1,0.8,0.2,1.5,0.2,2.3c0,0.3-0.2,0.6-0.6,0.6
			c-0.3,0.1-0.6-0.1-0.7-0.4c-0.2-1.1-0.4-2.1-0.6-3.2c-0.4-3.1-1.1-6.2-2-9.3c-0.1-0.2-0.2-0.3-0.2-0.5
			C162.5,165.2,162.4,165.1,162.4,165z"/>
		<path class="st20" d="M160.1,180.6c-1.7,0.2-3.4,0.5-5,0.7c-0.8,0.1-1.7,0.2-1.9-0.8s0.8-1.3,1.6-1.5c1.4-0.2,2.8-0.4,4.1-0.6
			C159.8,178.9,160.2,179.7,160.1,180.6z"/>
		<path class="st21" d="M162.4,165.3c0.2,0.1,0.3,0.3,0.2,0.5c0,0,0,0,0,0C162.4,165.7,162.3,165.5,162.4,165.3z"/>
		<path class="st4" d="M239.5,41c-13.2,0.5-26.4,1.2-39.5,2.1c-9.2,0.7-18.4,1.1-27.6,1.6c-11.4,0.5-22.8,1-34.1,2.2
			c-4.3,0.5-8.7,0.8-13,1.1c-1.5,0.2-2.9,0.1-4.4-0.1c-2.4-0.4-3.9-1.7-4.2-4c-0.4-3.5-0.7-7.1-0.9-10.6c0-1.1,0.2-2.2,0.7-3.2
			c0.2-0.6,0.8-1,1.5-0.8c0,0,0,0,0.1,0c0.6,0.2,0.8,0.7,0.7,1.3c-0.6,4.5,0.4,8.9,1,13.4c0,0.8,0.7,1.5,1.4,1.6
			c1.1,0.2,2.3,0.3,3.5,0.2c6-0.6,12.1-1.2,18.1-1.6c5.9-0.5,11.8-1,17.6-1.2c18.5-0.7,36.9-2.1,55.3-3.2c13.9-0.8,27.8-1.5,41.7-1
			c2.4,0.1,4.8,0,7.2,0c1.8,0,1.9-0.2,1.7-1.9c-0.2-2.3-0.6-4.6-0.8-6.9c-0.2-2-0.3-4-0.3-6c0-0.9-0.3-1.5-1.3-1.5s-1.9-0.2-2.8-0.3
			c-7.3-0.2-14.6-0.5-21.9,0.4c-7.9,1-15.8,1.1-23.7,1.8c-10.4,0.8-20.7,1.7-31.1,2.5c-4.1,0.3-8.2,0.4-12.3,0.7
			c-7.7,0.5-15.5,1.4-23.2,1.6c-3.1,0.1-6.2,0.2-9.3,0.2c-4.4,0-8.7,0.2-13,0.6c-0.9,0.1-2.2,0.5-2.5-0.9c-0.2-0.8,0.6-1.2,2.3-1.4
			c4.8-0.5,9.6-0.6,14.4-0.6c9.1,0,18.1-0.8,27.2-1.5c3.2-0.3,6.3-0.5,9.5-0.7c9.1-0.4,18.3-1.3,27.4-2.1c8.5-0.7,17-1.1,25.5-1.7
			c5.7-0.4,11.4-1.3,17.2-1.4c5.3-0.2,10.6,0,15.8,0.4c0.7,0.1,1.4,0.2,2.1,0.3c1.2,0.2,2.1,1.2,2.1,2.5c0,4.8,0.8,9.4,1.2,14.1
			c0.3,3.3-0.6,4.1-4,4.2c-6.9,0-13.8,0-20.7,0L239.5,41z"/>
		<path class="st4" d="M237.7,63.3c-13.1,9-25.5,18.8-37.9,28.6c-6.6,5.2-13.2,10.5-19.4,16.4c-2.8,2.6-5.3,5.5-7.9,8.2
			c-0.7,0.8-1.4,1.4-2.2,2.1c-1.3,0.9-2.2,0.7-3.1-0.7c-0.4-0.6-0.7-1.2-0.9-1.9c-3.3-7.4-7-14.5-11.2-21.4c-2-3.4-3.9-6.9-5.9-10.3
			c-1.3-2.4-2.9-4.6-4.8-6.6c-0.6-0.8-1.6-1-2.4-0.4c0,0,0,0,0,0c-0.5,0.3-1,0.5-1.4,0.7c-23.8,12.5-46.5,26.9-68,43
			c-1.4,1.1-2.8,2.3-4.2,3.4c-0.7,0.5-1.4,1-2.1,1.4c-0.6,0.3-1.2,0.4-1.7-0.2s-0.1-1.1,0.5-1.6c2.6-2,5.1-4.1,7.7-6.1
			c7.3-5.6,15-10.7,22.6-16c14.1-9.8,29.1-18,44.2-26.2c4-2.2,4.8-2,7.7,1.5c1.2,1.4,2.3,2.9,3.2,4.6c4.5,7.9,9.4,15.6,13.5,23.7
			c1.8,3.4,3.4,7,5.1,10.5c0.7,0.2,1-0.4,1.3-0.8c9.3-10.6,20.2-19.2,31.2-27.8S223.8,70,235.4,62c0.3-0.2,0.5-0.4,1.1-0.9
			c-1.7-0.2-3.4-0.1-5.1,0.2c-2.1,0.3-4.3,0.8-6.4,1.1c-0.9,0.1-2.2,0.6-2.4-0.6c-0.3-1.5,1.2-1.3,2.1-1.5c4.9-1.2,9.9-1.8,15-1.7
			c0.5,0,1.1,0,1.6,0.1c1.1,0.2,1.4,0.8,0.9,1.8c-2.3,5-4.6,10-6.9,15c-0.3,0.6-0.5,1.1-0.8,1.7c-0.4,0.7-0.9,1.1-1.7,0.7
			s-0.7-1-0.4-1.6c0.5-1.1,1-2.3,1.5-3.4c1.4-3,2.9-6,4.3-9C238.5,63.2,238.1,63.2,237.7,63.3z"/>
		<path class="st2" d="M39.9,125.4c0-7.4-0.7-16-1-24.6c-0.2-5.1-0.8-10.2-1.7-15.2c-0.6-4.5-0.9-9.1-0.8-13.7c0-0.6,0-1.3,0.8-1.4
			s1.2,0.5,1.3,1.2c0.1,0.4,0.2,0.9,0.2,1.3c-0.3,5.8,0.8,11.6,1.7,17.3c0.6,3.9,0.9,7.9,1.1,11.8c0.5,13.5,1.2,27,1.4,40.4
			c0.1,4.3,0,8.5-0.1,12.8c0,0.2,0,0.5-0.1,0.7c0,0.6-0.4,1-1,1.1c-0.6,0.1-1.2-0.3-1.3-1c0,0,0,0,0,0c-0.1-0.8-0.1-1.5-0.1-2.3
			C40.4,144.7,40.4,135.6,39.9,125.4z"/>
		<path class="st22" d="M340.1,68.7c-0.2,7.1-0.8,14.2-1.8,21.3c-0.2,1.3-0.5,2.6-0.9,3.8c-0.2,0.6-0.4,1.2-0.8,1.7
			c-0.3,0.6-1,0.9-1.6,0.6c-0.1,0-0.1-0.1-0.2-0.1c-0.6-0.3-0.8-1-0.5-1.6c1-3.2,1.6-6.6,1.9-10c1-8.2,1.3-16.6,0.8-24.9
			c-0.2-2.9-0.7-5.8-1.4-8.6c-0.2-0.9-0.8-2,0.5-2.6c0.9-0.4,1.4,0.2,1.9,2C339.7,56.3,340.4,62.5,340.1,68.7z"/>
		<path class="st23" d="M269.1,49.7h5.3c0.8,0,1.6,0.1,1.7,1.2s-0.8,1.3-1.6,1.3c-1.2,0-2.3,0-3.5,0.1c-2.2,0-2.2,0.1-2.3,2.4
			c0,1.1-0.1,2.2-0.1,3.3c0,0.8-0.3,1.4-1.2,1.4s-1.2-0.6-1.2-1.4c0-1.3,0-2.7,0.1-4c0.1-1.2-0.4-1.5-1.4-1.3
			c-1.5,0.3-3.1,0.4-4.6,0.7c-0.8,0.2-1.5,0.2-1.7-0.6s0.4-1.4,1.2-1.6c1.6-0.4,3.3-0.7,5-0.8c1.8-0.1,1.8-0.2,1.9-1.8
			c0.1-0.9,0.2-1.8,0.3-2.8c0-0.4,0.1-0.8,0.2-1.1c0.2-0.5,0.7-0.9,1.3-0.8c0.5,0.1,0.9,0.6,0.9,1.1c0,0,0,0,0,0.1
			C269.1,46.5,269,48.1,269.1,49.7z"/>
		<path class="st24" d="M353.9,65.5c-0.4,1.5-0.7,3-1,4.5c-0.9,4.1-2.2,8.2-3.7,12.2c-0.5,1.3-1.1,2.5-2,3.6c-0.5,0.6-1,1-1.8,0.5
			c-0.6-0.4-0.8-1.2-0.4-1.8c0,0,0,0,0-0.1c3-5.9,4.6-12.3,6.2-18.7c0.1-0.4,0.2-0.7,0.4-1.1c0.3-0.6,0.9-0.9,1.5-0.7
			C353.7,64.2,354.1,64.9,353.9,65.5z"/>
		<path class="st25" d="M123.2,182.2c-2.1-0.1-4.2-0.1-6.3,0.2c-0.1,0-0.3,0.1-0.4,0.1c-0.7-0.1-1.3-0.2-1.3-1
			c-0.1-0.5,0.3-1.1,0.8-1.2c0,0,0.1,0,0.1,0c0.8-0.2,1.7-0.3,2.5-0.4c3-0.1,6-0.1,9-0.1c0.4,0,0.8,0,1.2,0.1
			c0.8,0.1,1.6,0.4,1.5,1.4s-1,1-1.8,1L123.2,182.2z"/>
		<path class="st26" d="M196.3,179.2c-1.9,0.2-4.1,0.4-6.3,0.6c-0.5,0.1-1.1,0.1-1.6,0.1c-0.4,0-0.8-0.3-0.9-0.6
			c-0.2-0.4,0-1,0.4-1.2c0.5-0.3,1-0.4,1.5-0.5c3-0.3,6-0.6,9-0.8c0.8-0.1,1.6,0,2.3,0.3c0.6,0.1,0.9,0.6,0.9,1.2
			c0,0.7-0.6,1.1-1.3,1.1C199.1,179.3,197.9,179.2,196.3,179.2z"/>
		<path class="st27" d="M86.5,183.2c-1.2,0.2-2.9-0.4-4.5,0.4c-0.6,0.2-1.3,0.1-1.7-0.4c-0.9-0.7-0.9-1.7,0.2-2.1
			c0.5-0.2,1.1-0.3,1.6-0.2c2.5,0,4.9,0,7.4-0.1c0.2,0,0.3,0,0.5,0c0.9,0.1,2.1,0.1,2,1.4s-1.3,1-2.2,1L86.5,183.2z"/>
		<path class="st28" d="M237.3,179.8c-1.2,0-2.3,0-3.5,0c-0.7,0-1.3-0.1-1.4-0.9s0.5-1.2,1.2-1.4c0.5-0.1,0.9-0.1,1.4-0.1
			c2,0,4,0,6,0c0.6,0,1.2,0.1,1.8,0.2c0.8,0.2,1.6,0.5,1.4,1.5s-0.9,1-1.7,0.8C240.9,179.8,239.1,179.8,237.3,179.8z"/>
		<path class="st29" d="M371.7,125.7c-0.9-0.1-1.8,0-2.7,0.2c-0.4,0.1-0.8,0-0.9-0.5c-0.1-0.4,0.1-0.8,0.5-0.9
			c0.2-0.1,0.4-0.2,0.6-0.2c2.3-0.5,4.7-0.1,6.7,1c0.1,0.1,0.3,0.2,0.4,0.3c0.3,0.3,0.6,0.6,0.3,1c-0.2,0.3-0.6,0.5-1,0.3
			c0,0,0,0,0,0C374.5,126.1,373.2,125.8,371.7,125.7z"/>
		<path class="st30" d="M237.7,63.3c0.1-0.5,0.6-0.7,0.8-0.5c0.5,0.4,0.2,0.8-0.3,1.1L237.7,63.3z"/>
		<path class="st1" d="M352.1,158.2c-2.2-1.1-4.3-2.1-6.3-3.1c-0.4-0.2-0.7-0.4-1-0.6c-1-0.9-1-1.6,0.2-2.4c1.3-0.9,2.9-1.3,4.4-1
			c3.2,0.7,4.3,2.8,3.3,5.8C352.5,157.3,352.4,157.6,352.1,158.2z"/>
		<path class="st1" d="M364.9,160.5c-3.7,1.8-7.1,0.9-10.5-1c1.2-1.9,2.5-3.7,4.9-3.3S364,157.6,364.9,160.5z"/>
		<path class="st9" d="M350.9,146.7c0,0.1,0,0.3-0.1,0.3c-1.1,0.7-2.2,1.3-3.3,1.9c-0.3,0.1-0.5-0.5-0.4-0.9c0.6-1.3,2-2,3.4-1.7
			C350.7,146.3,350.8,146.6,350.9,146.7z"/>
		<path class="st1" d="M369.4,138.7l-5.7-1.5c1-1.5,2.8-2.3,4.6-1.8C369.6,135.8,369.8,136.5,369.4,138.7z"/>
		<path class="st9" d="M367.7,140.9c-0.4,1-1.5,1.5-2.5,1.2c-1.2-0.3-0.7-1.1-1-1.9C365.4,140,366.6,140.3,367.7,140.9z"/>
		<path class="st1" d="M380.7,145.9c-1.2-0.9-2.3-2-3.1-3.3c1.3-0.7,2.7-0.8,3.7,0.1S381,144.6,380.7,145.9z"/>
		<path class="st9" d="M378,147c-0.4,0.6-1.2,0.9-1.8,0.5c-0.1-0.1-0.3-0.2-0.4-0.3c-0.8-0.8-0.1-1.4,0.2-2.1L378,147z"/>
		<path class="st31" d="M255.4,125.5c0,7.8,0.1,15.7,0,23.5c0,5-0.3,9.9-0.4,14.9c-0.1,3.8-0.1,3.7-3.8,3.9
			c-7.4,0.4-14.9,0.8-22.3,1.2c-3.7,0.2-3.7,0.1-3.7-3.5c-0.2-13.5,0.2-27,0.7-40.5c0.4-11.7,1.1-23.4,1.3-35.1
			c0-1.2,0.3-2.5,0.3-3.7c0.1-1,0.5-1.6,1.5-1.6c7.5-0.1,14.9-2,22.4-2.1c4.1-0.1,4.4,0.1,4.5,4.2c0.2,8.1,0.1,16.1-0.2,24.2
			c-0.1,3.3-0.1,6.5,0,9.8C255.8,122.2,255.7,123.8,255.4,125.5z"/>
		<path class="st9" d="M113.3,141.9c0.2-9.1,0.2-18.1-0.3-27.2c0-1.6-0.2-3.3-0.4-4.9c-0.4-2.6-0.1-3.1,2.5-3.7
			c3.1-0.8,6.2-1.3,9.4-1.6c2.2-0.2,4.3-0.3,6.5-0.5c0.6-0.1,1.2-0.1,1.9-0.1c3.4,0,4.1,0.6,4.7,4c1,6.1,1.1,12.2,1.3,18.3
			c0.4,8.8,0,17.5-0.3,26.3c-0.2,6-0.4,11.9-0.4,17.9c0,1.2-0.4,1.6-1.6,1.6c-7.4,0.2-14.7,0.4-22.1,0.7c-1.2,0-1.3-0.5-1.2-1.4
			c0-4.7,0-9.5,0-14.2L113.3,141.9z"/>
		<path class="st9" d="M97.6,151.8c-0.7,5.7-0.1,12.1-0.5,18.4c0,0.6-0.1,1.2-0.1,1.9c0,0.9-0.5,1.2-1.3,1.2
			c-7.4,0.3-14.9,0.6-22.3,0.9c-1.2,0.1-1.4-0.3-1.4-1.4c0.4-6.9,0.2-13.8,1.1-20.7c0.1-0.6,0.1-1.2,0.1-1.9
			c-0.4-5.7,0.4-11.3,1-16.9c0.1-1,0.3-1.5,1.4-1.7c6.8-0.9,13.5-2,20.3-2.9c1.6-0.2,1.9,0.2,2.1,1.7c0.1,0.7,0.1,1.4,0,2.1
			C97.4,138.8,97.6,145,97.6,151.8z"/>
		<path class="st9" d="M196,170c-2.6,0.1-5.3,0.3-7.9,0.4c-1.6,0.1-1.8,0-1.5-1.4c1.4-8.2,0.9-16.6,1.6-24.8
			c0.3-3.7,0.1-7.4,0.1-11.2c-0.1-2.6,0.1-5.1,0.5-7.6c0.2-1,0.5-1.5,1.6-1.5c4.7,0.2,9.5,0.2,14.2-0.1c3.1-0.2,3.8,0.7,3.8,3.8
			c0,5.7-0.6,11.5-0.9,17.2c-0.4,7.7-1,15.5-1.4,23.2c-0.1,1.5,0,1.8-1.8,1.8c-2.7,0-5.4,0-8.1,0L196,170z"/>
	</g>
</g>
</svg>
